<?xml version="1.0" standalone="no"?>
<!DOCTYPE svg PUBLIC "-//W3C//DTD SVG 20010904//EN"
 "http://www.w3.org/TR/2001/REC-SVG-20010904/DTD/svg10.dtd">
<svg version="1.0" xmlns="http://www.w3.org/2000/svg"
 width="64.000000pt" height="64.000000pt" viewBox="0 0 64.000000 64.000000"
 preserveAspectRatio="xMidYMid meet">

<g transform="translate(0.000000,64.000000) scale(0.100000,-0.100000)"
fill="#000000" stroke="none">
<path d="M300 496 c0 -14 5 -28 10 -31 6 -4 10 7 10 24 0 17 -4 31 -10 31 -5
0 -10 -11 -10 -24z"/>
<path d="M207 493 c-4 -6 2 -22 13 -34 14 -18 19 -20 20 -8 0 22 -25 54 -33
42z"/>
<path d="M401 482 c-7 -13 -11 -28 -8 -35 2 -7 9 -2 16 11 7 13 11 28 8 35 -2
7 -9 2 -16 -11z"/>
<path d="M285 433 c-36 -9 -73 -43 -84 -76 -5 -17 -8 -67 -6 -110 2 -65 7 -83
26 -103 22 -24 26 -24 152 -22 128 3 130 3 150 30 26 36 18 65 -36 119 -25 24
-48 55 -52 69 -14 44 -35 68 -76 84 -22 9 -43 15 -47 15 -4 -1 -16 -4 -27 -6z
m99 -49 c36 -36 34 -54 -7 -54 -18 0 -43 -8 -57 -17 -13 -9 -31 -18 -40 -18
-8 -1 -25 -5 -37 -9 -27 -9 -36 6 -28 46 17 76 114 106 169 52z m86 -124 c62
-63 65 -91 13 -119 -31 -16 -186 -14 -228 3 -39 16 -52 48 -36 88 9 24 62 53
75 41 3 -3 17 4 32 16 47 37 87 28 144 -29z"/>
<path d="M130 412 c0 -5 11 -14 25 -20 26 -12 33 -4 13 16 -14 14 -38 16 -38
4z"/>
<path d="M457 406 c-10 -8 -14 -17 -9 -20 6 -3 21 3 33 14 28 23 5 28 -24 6z"/>
<path d="M105 310 c3 -5 17 -10 31 -10 13 0 24 5 24 10 0 6 -14 10 -31 10 -17
0 -28 -4 -24 -10z"/>
<path d="M470 310 c0 -5 11 -10 24 -10 14 0 28 5 31 10 4 6 -7 10 -24 10 -17
0 -31 -4 -31 -10z"/>
<path d="M144 226 c-10 -8 -16 -17 -12 -21 8 -8 48 13 48 25 0 14 -13 12 -36
-4z"/>
</g>
</svg>
